<svg width="276" height="276" viewBox="0 0 276 276" fill="none" xmlns="http://www.w3.org/2000/svg">
<path d="M138 24.8023C168.234 24.8023 196.666 36.5751 218.045 57.9547C239.425 79.3343 251.198 107.766 251.198 138C251.198 168.234 239.425 196.666 218.045 218.045C196.666 239.425 168.234 251.198 138 251.198C107.766 251.198 79.3344 239.425 57.9548 218.045C36.5752 196.666 24.8023 168.234 24.8023 138C24.8023 107.766 36.5752 79.3343 57.9548 57.9547C79.3344 36.5751 107.766 24.8023 138 24.8023ZM138 0C61.7826 0 0 61.7825 0 138C0 214.217 61.7826 276 138 276C214.218 276 276 214.217 276 138C276 61.7825 214.218 0 138 0Z" fill="#E60012"/>
</svg>
