<svg width="259" height="369" viewBox="0 0 259 369" fill="none" xmlns="http://www.w3.org/2000/svg">
<g style="mix-blend-mode:multiply">
<path d="M-93.3476 259.973C-103.559 237.333 -109.031 213.367 -109.611 188.738C-110.173 164.954 -106.167 141.564 -97.714 119.213C-89.2606 96.8627 -76.7764 76.6807 -60.6118 59.2241C-43.8791 41.1531 -23.9143 26.8107 -1.27108 16.598C21.3721 6.38522 45.3348 0.914991 69.9636 0.33436C93.7483 -0.227288 117.138 3.77816 139.489 12.2316C161.836 20.6863 182.021 33.1692 199.478 49.3337C217.553 66.0681 231.896 86.033 242.108 108.676C252.321 131.319 257.791 155.282 258.372 179.911C258.934 203.695 254.928 227.085 246.475 249.436C238.02 271.783 225.537 291.969 209.373 309.425C192.638 327.501 172.674 341.843 150.03 352.056C127.387 362.268 103.424 367.739 78.7956 368.319C55.011 368.881 31.6212 364.876 9.27055 356.422C-13.0801 347.969 -33.2621 335.484 -50.7187 319.32C-68.7941 302.586 -83.1365 282.621 -93.3492 259.978L-93.3476 259.973ZM234.433 112.134C224.686 90.525 211.003 71.4736 193.757 55.5057C177.099 40.081 157.837 28.1712 136.507 20.0989C115.174 12.0281 92.8539 8.20842 70.1577 8.74428C46.6641 9.29648 23.794 14.5212 2.18451 24.2677C-19.425 34.0142 -38.4764 47.6973 -54.4442 64.9435C-69.869 81.6013 -81.7788 100.863 -89.8511 122.193C-97.9233 143.523 -101.742 165.846 -101.206 188.543C-100.654 212.036 -95.4288 234.906 -85.6823 256.516C-75.9357 278.125 -62.2526 297.177 -45.0065 313.145C-28.3501 328.566 -9.08648 340.479 12.2432 348.551C33.5729 356.624 55.8964 360.442 78.5927 359.906C102.086 359.354 124.956 354.129 146.566 344.383C168.175 334.636 187.227 320.953 203.195 303.707C218.616 287.05 230.529 267.787 238.601 246.457C246.672 225.124 250.492 202.804 249.956 180.108C249.404 156.614 244.179 133.744 234.433 112.134Z" fill="#00A0E9"/>
</g>
</svg>
