<svg width="477" height="477" viewBox="0 0 477 477" fill="none" xmlns="http://www.w3.org/2000/svg">
<path d="M238.496 476.996C206.303 476.996 175.07 470.689 145.659 458.25C117.257 446.238 91.7546 429.04 69.8507 407.141C47.9469 385.241 30.7535 359.735 18.7417 331.332C6.30685 301.93 0 270.697 0 238.5C0 206.303 6.30685 175.074 18.7461 145.664C30.7579 117.261 47.9556 91.759 69.8551 69.8551C91.7546 47.9556 117.261 30.7579 145.664 18.7461C175.07 6.30684 206.303 0 238.5 0C270.697 0 301.926 6.30684 331.336 18.7461C359.739 30.7579 385.241 47.9556 407.145 69.8551C429.044 91.7546 446.242 117.261 458.254 145.664C470.693 175.07 477 206.303 477 238.5C477 270.697 470.693 301.926 458.254 331.336C446.242 359.739 429.044 385.241 407.145 407.145C385.245 429.049 359.739 446.242 331.336 458.254C301.93 470.693 270.697 477 238.5 477L238.496 476.996ZM238.496 10.9127C207.768 10.9127 177.966 16.9273 149.908 28.7951C122.805 40.2574 98.4671 56.67 77.562 77.5707C56.6569 98.4758 40.2487 122.813 28.7864 149.916C16.9186 177.97 10.904 207.777 10.904 238.504C10.904 269.232 16.9186 299.034 28.7864 327.092C40.2487 354.195 56.6613 378.533 77.562 399.438C98.4627 420.343 122.805 436.751 149.908 448.214C177.961 460.081 207.768 466.096 238.496 466.096C269.223 466.096 299.026 460.081 327.084 448.214C354.182 436.751 378.524 420.339 399.429 399.438C420.334 378.537 436.743 354.195 448.205 327.092C460.073 299.039 466.087 269.232 466.087 238.504C466.087 207.777 460.073 177.974 448.205 149.916C436.743 122.818 420.33 98.4758 399.429 77.5707C378.524 56.6657 354.187 40.2574 327.084 28.7951C299.03 16.9273 269.223 10.9127 238.496 10.9127Z" fill="#00A0E9"/>
</svg>
