<svg width="334" height="247" viewBox="0 0 334 247" fill="none" xmlns="http://www.w3.org/2000/svg">
<path d="M166.92 -57C203.49 -57 237.88 -42.76 263.74 -16.9C289.6 8.96 303.84 43.35 303.84 79.92C303.84 116.49 289.6 150.88 263.74 176.74C237.88 202.6 203.49 216.84 166.92 216.84C130.35 216.84 95.9601 202.6 70.1001 176.74C44.2401 150.88 30 116.49 30 79.92C30 43.35 44.2401 8.96 70.1001 -16.9C95.9601 -42.76 130.35 -57 166.92 -57ZM166.92 -87C74.73 -87 0 -12.27 0 79.92C0 172.11 74.73 246.84 166.92 246.84C259.11 246.84 333.84 172.11 333.84 79.92C333.84 -12.27 259.11 -87 166.92 -87Z" fill="#E60012"/>
</svg>
