<svg width="694" height="856" viewBox="0 0 694 856" fill="none" xmlns="http://www.w3.org/2000/svg">
<g style="mix-blend-mode:multiply">
<path d="M265.992 855.992C208.221 855.992 152.171 844.674 99.3929 822.351C48.423 800.796 2.65813 769.933 -36.6494 730.634C-75.957 691.334 -106.811 645.561 -128.367 594.591C-150.682 541.829 -162 485.779 -162 428C-162 370.22 -150.682 314.179 -128.359 261.401C-106.803 210.431 -75.9413 164.666 -36.6416 125.358C2.65813 86.0587 48.4308 55.1965 99.4008 33.6407C152.171 11.3179 208.221 0 266 0C323.779 0 379.821 11.3179 432.599 33.6407C483.569 55.1965 529.334 86.0587 568.642 125.358C607.941 164.658 638.803 210.431 660.359 261.401C682.682 314.171 694 370.22 694 428C694 485.779 682.682 541.821 660.359 594.599C638.803 645.569 607.941 691.334 568.642 730.642C529.342 769.949 483.569 800.803 432.599 822.359C379.829 844.682 323.779 856 266 856L265.992 855.992ZM265.992 19.5833C210.85 19.5833 157.368 30.3768 107.017 51.6743C58.3791 72.2439 14.704 101.697 -22.8112 139.204C-60.3263 176.72 -89.7718 220.395 -110.341 269.032C-131.639 319.376 -142.432 372.866 -142.432 428.008C-142.432 483.15 -131.639 536.632 -110.341 586.983C-89.7718 635.621 -60.3185 679.296 -22.8112 716.811C14.6962 754.326 58.3791 783.772 107.017 804.341C157.36 825.639 210.85 836.432 265.992 836.432C321.134 836.432 374.616 825.639 424.968 804.341C473.597 783.772 517.28 754.318 554.795 716.811C592.311 679.304 621.756 635.621 642.326 586.983C663.623 536.64 674.417 483.15 674.417 428.008C674.417 372.866 663.623 319.384 642.326 269.032C621.756 220.403 592.303 176.72 554.795 139.204C517.28 101.689 473.605 72.2439 424.968 51.6743C374.624 30.3768 321.134 19.5833 265.992 19.5833Z" fill="#00A0E9"/>
</g>
</svg>
