<svg width="130" height="347" viewBox="0 0 130 347" fill="none" xmlns="http://www.w3.org/2000/svg">
<path opacity="0.5" d="M-43.5032 346.997C-66.9223 346.997 -89.6433 342.409 -111.038 333.36C-131.7 324.622 -150.252 312.111 -166.186 296.18C-182.12 280.249 -194.628 261.694 -203.366 241.032C-212.412 219.643 -217 196.922 -217 173.5C-217 150.078 -212.412 127.36 -203.363 105.965C-194.625 85.3032 -182.114 66.7513 -166.183 50.817C-150.252 34.8859 -131.697 22.3752 -111.035 13.6371C-89.6433 4.58799 -66.9223 0 -43.5 0C-20.0777 0 2.64017 4.58799 24.035 13.6371C44.6968 22.3752 63.2487 34.8859 79.183 50.817C95.1141 66.7481 107.625 85.3032 116.363 105.965C125.412 127.357 130 150.078 130 173.5C130 196.922 125.412 219.64 116.363 241.035C107.625 261.697 95.1141 280.249 79.183 296.183C63.2519 312.117 44.6968 324.625 24.035 333.363C2.64334 342.412 -20.0777 347 -43.5 347L-43.5032 346.997ZM-43.5032 7.93856C-65.8562 7.93856 -87.5365 12.314 -107.948 20.9474C-127.664 29.2858 -145.369 41.2254 -160.576 56.4299C-175.784 71.6375 -187.721 89.3422 -196.059 109.059C-204.692 129.467 -209.068 151.15 -209.068 173.503C-209.068 195.856 -204.692 217.537 -196.059 237.948C-187.721 257.664 -175.781 275.369 -160.576 290.576C-145.372 305.784 -127.664 317.721 -107.948 326.059C-87.5397 334.692 -65.8562 339.068 -43.5032 339.068C-21.1502 339.068 0.530197 334.692 20.9414 326.059C40.6546 317.721 58.3625 305.781 73.5701 290.576C88.7778 275.372 100.714 257.664 109.053 237.948C117.686 217.54 122.061 195.856 122.061 173.503C122.061 151.15 117.686 129.47 109.053 109.059C100.714 89.3454 88.7746 71.6375 73.5701 56.4299C58.3625 41.2222 40.6577 29.2858 20.9414 20.9474C0.533371 12.314 -21.1502 7.93856 -43.5032 7.93856Z" fill="#E60012"/>
</svg>
