<svg width="259" height="369" viewBox="0 0 259 369" fill="none" xmlns="http://www.w3.org/2000/svg">
<g style="mix-blend-mode:multiply">
<path d="M-93.3483 259.973C-103.56 237.333 -109.031 213.367 -109.612 188.738C-110.174 164.954 -106.168 141.564 -97.7147 119.213C-89.2613 96.8627 -76.7771 76.6807 -60.6126 59.2241C-43.8798 41.1531 -23.915 26.8107 -1.27182 16.598C21.3714 6.38522 45.3341 0.914991 69.9629 0.33436C93.7475 -0.227288 117.137 3.77816 139.488 12.2316C161.835 20.6863 182.021 33.1692 199.477 49.3337C217.553 66.0681 231.895 86.033 242.108 108.676C252.32 131.319 257.791 155.282 258.371 179.911C258.933 203.695 254.928 227.085 246.474 249.436C238.019 271.783 225.537 291.969 209.372 309.425C192.638 327.501 172.673 341.843 150.03 352.056C127.386 362.268 103.424 367.739 78.7949 368.319C55.0103 368.881 31.6204 364.876 9.26981 356.422C-13.0808 347.969 -33.2628 335.484 -50.7194 319.32C-68.7949 302.586 -83.1372 282.621 -93.35 259.978L-93.3483 259.973ZM234.432 112.134C224.685 90.525 211.002 71.4736 193.756 55.5057C177.098 40.081 157.836 28.1712 136.506 20.0989C115.174 12.0281 92.8532 8.20842 70.1569 8.74428C46.6633 9.29648 23.7933 14.5212 2.18378 24.2677C-19.4257 34.0142 -38.4771 47.6973 -54.445 64.9435C-69.8697 81.6013 -81.7796 100.863 -89.8518 122.193C-97.924 143.523 -101.742 165.846 -101.206 188.543C-100.654 212.036 -95.4295 234.906 -85.683 256.516C-75.9365 278.125 -62.2534 297.177 -45.0073 313.145C-28.3508 328.566 -9.08721 340.479 12.2425 348.551C33.5722 356.624 55.8957 360.442 78.5919 359.906C102.086 359.354 124.956 354.129 146.565 344.383C168.175 334.636 187.226 320.953 203.194 303.707C218.616 287.05 230.528 267.787 238.601 246.457C246.672 225.124 250.491 202.804 249.955 180.108C249.403 156.614 244.178 133.744 234.432 112.134Z" fill="#00A0E9"/>
</g>
</svg>
