<svg width="519" height="784" viewBox="0 0 519 784" fill="none" xmlns="http://www.w3.org/2000/svg">
<path opacity="0.5" d="M391.993 783.993C339.081 783.993 287.745 773.627 239.407 753.182C192.724 733.439 150.808 705.173 114.807 669.179C78.8057 633.184 50.5467 591.262 30.804 544.579C10.366 496.255 0 444.919 0 392C0 339.08 10.366 287.752 30.8112 239.414C50.5538 192.731 78.8201 150.816 114.814 114.814C150.808 78.8201 192.731 50.5538 239.414 30.8111C287.745 10.366 339.081 0 392 0C444.919 0 496.248 10.366 544.586 30.8111C591.269 50.5538 633.184 78.8201 669.186 114.814C705.18 150.808 733.446 192.731 753.189 239.414C773.634 287.745 784 339.08 784 392C784 444.919 773.634 496.247 753.189 544.586C733.446 591.269 705.18 633.184 669.186 669.186C633.192 705.187 591.269 733.446 544.586 753.189C496.255 773.634 444.919 784 392 784L391.993 783.993ZM391.993 17.9361C341.489 17.9361 292.505 27.8218 246.389 47.3279C201.843 66.1673 161.841 93.1432 127.481 127.496C93.1217 161.855 66.153 201.857 47.3136 246.403C27.8075 292.512 17.9218 341.504 17.9218 392.007C17.9218 442.511 27.8075 491.495 47.3136 537.611C66.153 582.157 93.1289 622.159 127.481 656.519C161.834 690.878 201.843 717.847 246.389 736.686C292.498 756.193 341.489 766.078 391.993 766.078C442.496 766.078 491.48 756.193 537.597 736.686C582.136 717.847 622.145 690.871 656.504 656.519C690.864 622.166 717.833 582.157 736.672 537.611C756.178 491.502 766.064 442.511 766.064 392.007C766.064 341.504 756.178 292.52 736.672 246.403C717.833 201.864 690.857 161.855 656.504 127.496C622.145 93.136 582.143 66.1673 537.597 47.3279C491.487 27.8218 442.496 17.9361 391.993 17.9361Z" fill="#00A0E9"/>
</svg>
