<svg width="269" height="269" viewBox="0 0 269 269" fill="none" xmlns="http://www.w3.org/2000/svg">
<path d="M134.498 268.998C116.343 268.998 98.7289 265.441 82.1433 258.426C66.1259 251.652 51.7442 241.953 39.3917 229.603C27.0392 217.253 17.3432 202.869 10.5692 186.852C3.55669 170.271 0 152.657 0 134.5C0 116.343 3.55669 98.7314 10.5717 82.1458C17.3456 66.1284 27.0441 51.7467 39.3942 39.3942C51.7442 27.0441 66.1284 17.3456 82.1458 10.5717C98.7289 3.55669 116.343 0 134.5 0C152.657 0 170.269 3.55669 186.854 10.5717C202.872 17.3456 217.253 27.0441 229.606 39.3942C241.956 51.7442 251.654 66.1284 258.428 82.1458C265.443 98.7289 269 116.343 269 134.5C269 152.657 265.443 170.269 258.428 186.854C251.654 202.872 241.956 217.253 229.606 229.606C217.256 241.958 202.872 251.654 186.854 258.428C170.271 265.443 152.657 269 134.5 269L134.498 268.998ZM134.498 6.1541C117.169 6.1541 100.362 9.54599 84.5391 16.2388C69.2546 22.7028 55.5296 31.9586 43.7404 43.7453C31.9512 55.5346 22.6979 69.2596 16.2339 84.544C9.54108 100.365 6.14919 117.174 6.14919 134.502C6.14919 151.831 9.54108 168.638 16.2339 184.461C22.6979 199.745 31.9537 213.47 43.7404 225.26C55.5272 237.049 69.2546 246.302 84.5391 252.766C100.36 259.459 117.169 262.851 134.498 262.851C151.826 262.851 168.633 259.459 184.456 252.766C199.738 246.302 213.465 237.046 225.255 225.26C237.044 213.473 246.297 199.745 252.761 184.461C259.454 168.64 262.846 151.831 262.846 134.502C262.846 117.174 259.454 100.367 252.761 84.544C246.297 69.262 237.041 55.5346 225.255 43.7453C213.465 31.9561 199.74 22.7028 184.456 16.2388C168.635 9.54599 151.826 6.1541 134.498 6.1541Z" fill="#E60012"/>
</svg>
